<?xml version="1.0" encoding="utf-8" standalone="no"?>
<!DOCTYPE svg PUBLIC "-//W3C//DTD SVG 1.1//EN" "http://www.w3.org/Graphics/SVG/1.1/DTD/svg11.dtd">
<svg xmlns="http://www.w3.org/2000/svg" xmlns:xl="http://www.w3.org/1999/xlink" version="1.1" viewBox="0 0 60 60" width="5pc" height="5pc" xmlns:dc="http://purl.org/dc/elements/1.1/"><metadata> Produced by OmniGraffle 6.1.4 <dc:date>2015-06-10 15:06:14 +0000</dc:date></metadata><defs/><g stroke="none" stroke-opacity="1" stroke-dasharray="none" fill="none" fill-opacity="1"><title>Canvas 43</title><g><title>Layer 1</title><path d="M 10.8 21.6 L 18.36 22.68 L 18.736163 18.736163 C 21.744278 15.72672 25.745363 14.07 30 14.07 C 34.254637 14.07 38.255722 15.72672 41.263837 18.736163 C 44.27328 21.744278 45.93 25.745363 45.93 30 C 45.93 34.254637 44.27328 38.255722 41.263837 41.263837 C 38.255722 44.27328 34.254637 45.93 30 45.93 C 25.745363 45.93 21.744278 44.27328 18.736163 41.263837 C 18.485265 41.01294 18.24366 40.754077 18.011348 40.489905 L 14.015573 43.98654 C 17.90913 48.432337 23.626673 51.24 30 51.24 C 41.731117 51.24 51.24 41.731117 51.24 30 C 51.24 18.268883 41.731117 8.7600005 30 8.7600005 C 24.135105 8.7600005 18.825105 11.137553 14.981993 14.98332 L 11.52 14.4 Z" fill="#4030c4"/><path d="M 13.305958 8.3625 L 7.984361 26.092819 L 25.71468 20.771222 Z" fill="#4030c4"/></g></g></svg>
